<?xml version="1.0" standalone="no"?>
<!DOCTYPE svg PUBLIC "-//W3C//DTD SVG 20010904//EN"
 "http://www.w3.org/TR/2001/REC-SVG-20010904/DTD/svg10.dtd">
<svg version="1.0" xmlns="http://www.w3.org/2000/svg"
 width="474.000000pt" height="248.000000pt" viewBox="0 0 474.000000 248.000000"
 preserveAspectRatio="xMidYMid meet">

<g transform="translate(0.000000,248.000000) scale(0.100000,-0.100000)"
fill="#000000" stroke="none">
<path d="M2323 2349 c-29 -17 -53 -33 -53 -36 0 -2 24 9 54 26 29 17 59 31 66
31 6 0 74 -34 151 -76 l139 -76 0 -168 0 -169 -27 -19 c-65 -44 -248 -146
-263 -145 -8 1 -72 34 -140 73 -69 39 -119 66 -112 59 6 -7 12 -17 12 -22 0
-4 -6 -5 -12 -2 -29 13 23 -20 122 -78 l105 -62 0 -170 0 -170 -80 -47 c-44
-26 -102 -61 -129 -77 l-50 -29 42 -26 c23 -14 49 -26 57 -26 9 0 75 34 146
76 l131 77 36 -17 c52 -25 34 -10 -40 33 l-63 37 0 169 0 170 144 83 144 83
126 -72 c184 -104 171 -84 171 -265 0 -122 -3 -156 -15 -168 -8 -8 -73 -47
-143 -87 l-129 -73 51 -24 c28 -13 58 -21 67 -19 8 2 79 41 158 87 l141 82 -2
185 -3 185 -145 83 -145 83 -5 176 c-4 138 -8 178 -20 190 -8 7 -76 48 -150
90 -106 61 -140 76 -160 71 -31 -9 -68 -9 -100 -1 -18 5 -40 -3 -77 -25z"/>
<path d="M2260 2280 c-63 -37 -121 -73 -127 -79 -14 -13 -19 -288 -5 -306 7
-10 254 -155 264 -155 11 0 253 144 260 154 4 6 8 74 8 151 0 77 -4 145 -8
151 -11 16 -248 154 -263 153 -8 0 -66 -31 -129 -69z m261 -18 l114 -68 3
-149 2 -150 -118 -67 c-66 -38 -125 -68 -132 -68 -11 0 -127 65 -228 127 -22
13 -22 17 -20 161 l3 147 115 67 c63 37 122 67 131 68 8 0 67 -31 130 -68z"/>
<path d="M2178 2264 c-43 -24 -78 -49 -78 -55 0 -6 7 -4 15 4 8 8 44 31 80 51
36 21 65 39 65 41 0 8 0 7 -82 -41z"/>
<path d="M2035 1798 c-22 -11 -82 -45 -132 -75 l-93 -54 0 -148 c0 -128 2
-150 18 -164 21 -19 240 -147 251 -147 13 0 255 142 263 154 4 6 8 74 8 152 0
122 -2 143 -17 156 -18 16 -247 148 -254 148 -2 -1 -22 -10 -44 -22z m175 -66
l115 -67 3 -147 3 -146 -28 -19 c-53 -37 -210 -123 -224 -123 -8 0 -66 31
-129 68 l-115 67 0 150 0 149 115 68 c63 37 122 68 130 67 8 0 67 -30 130 -67z"/>
<path d="M2659 1796 c-24 -13 -82 -46 -129 -73 l-85 -49 0 -159 0 -159 125
-73 c68 -40 129 -73 135 -73 5 1 66 34 135 74 l125 74 3 155 2 155 -112 65
c-165 95 -149 89 -199 63z m171 -62 c63 -37 118 -72 122 -78 4 -6 8 -69 8
-141 0 -71 -4 -135 -8 -141 -11 -17 -232 -144 -249 -144 -13 0 -122 60 -231
127 -22 13 -22 17 -20 160 l3 146 115 68 c63 37 122 68 130 68 8 1 66 -29 130
-65z"/>
<path d="M1904 1757 c-136 -78 -124 -55 -124 -242 0 -171 1 -176 50 -199 8 -4
3 2 -12 14 l-28 22 0 164 0 164 105 61 c89 52 117 70 103 69 -2 0 -44 -24 -94
-53z"/>
<path d="M1850 1306 c0 -3 14 -12 30 -21 17 -9 30 -13 30 -11 0 3 -13 12 -30
21 -16 9 -30 13 -30 11z"/>
<path d="M1940 1256 c0 -3 9 -10 20 -16 11 -6 20 -8 20 -6 0 3 -9 10 -20 16
-11 6 -20 8 -20 6z"/>
<path d="M2580 1246 c0 -3 9 -10 20 -16 11 -6 20 -8 20 -6 0 3 -9 10 -20 16
-11 6 -20 8 -20 6z"/>
<path d="M1990 1226 c0 -3 9 -10 20 -16 11 -6 20 -8 20 -6 0 3 -9 10 -20 16
-11 6 -20 8 -20 6z"/>
<path d="M2630 1215 c0 -7 61 -37 66 -33 2 3 -12 12 -31 21 -19 9 -35 15 -35
12z"/>
<path d="M3666 1002 c-16 -28 -56 -166 -49 -172 26 -25 49 -19 68 17 19 35 67
73 93 73 10 0 12 -39 10 -177 -3 -176 -3 -178 -25 -181 -18 -3 -23 -10 -23
-33 l0 -29 115 0 115 0 0 30 c0 25 -4 30 -24 30 -13 0 -27 7 -30 16 -3 9 -6
87 -6 175 0 136 2 161 16 166 20 7 62 -24 92 -68 17 -24 30 -33 45 -31 38 5
40 18 11 99 l-28 79 -158 -4 c-86 -3 -165 -1 -175 3 -27 12 -42 14 -47 7z"/>
<path d="M1079 985 c-69 -22 -109 -72 -109 -134 0 -81 47 -121 187 -160 85
-23 112 -39 120 -70 14 -56 -74 -79 -155 -40 -37 18 -92 76 -104 109 -2 5 -16
6 -32 3 -27 -5 -28 -8 -23 -47 3 -23 11 -65 17 -93 10 -46 15 -53 35 -53 13 0
28 7 32 15 8 13 15 12 53 -6 34 -17 57 -20 110 -17 106 6 170 61 170 147 0 85
-33 114 -187 165 -109 35 -133 57 -107 94 11 16 25 22 55 22 52 0 89 -20 132
-71 30 -35 40 -40 61 -35 31 8 32 24 8 111 -13 47 -22 61 -38 63 -11 2 -26 -4
-33 -12 -10 -12 -16 -12 -39 -1 -43 22 -103 26 -153 10z"/>
<path d="M1637 989 c-97 -23 -166 -86 -192 -173 -19 -63 -19 -90 0 -154 32
-105 126 -172 244 -172 83 0 132 15 181 58 62 52 84 103 84 192 1 83 -18 131
-70 184 -55 56 -166 85 -247 65z m128 -91 c39 -30 55 -77 55 -158 0 -86 -18
-133 -62 -160 -95 -57 -187 16 -188 149 0 76 18 127 57 161 42 37 97 40 138 8z"/>
<path d="M2209 993 c-15 -2 -50 -18 -79 -36 -167 -101 -151 -363 27 -447 66
-31 171 -25 236 13 40 24 107 91 107 108 0 3 -11 12 -25 19 -24 13 -28 11 -63
-22 -49 -48 -72 -58 -126 -58 -85 0 -136 70 -136 188 0 55 4 76 23 103 58 86
159 76 223 -21 26 -40 46 -48 73 -31 12 8 11 22 -9 95 -20 76 -25 86 -46 86
-12 0 -24 -5 -26 -10 -2 -7 -23 -6 -63 5 -59 15 -67 16 -116 8z"/>
<path d="M670 955 c0 -30 3 -35 24 -35 13 0 27 -7 30 -16 8 -20 8 -308 0 -328
-3 -9 -17 -16 -30 -16 -20 0 -24 -5 -24 -30 l0 -30 115 0 115 0 0 30 c0 25 -4
30 -24 30 -13 0 -27 7 -30 16 -3 9 -6 84 -6 168 0 157 5 176 42 176 14 0 18 8
18 35 l0 35 -115 0 -115 0 0 -35z"/>
<path d="M2550 957 c0 -29 4 -36 23 -39 22 -3 22 -7 28 -168 6 -170 3 -190
-32 -190 -14 0 -19 -7 -19 -30 l0 -30 115 0 115 0 0 29 c0 25 -4 30 -27 33
-27 3 -28 5 -31 76 -3 70 -2 72 20 72 18 0 42 -24 102 -105 l78 -105 79 0 79
0 0 30 c0 24 -4 30 -22 30 -13 0 -30 6 -38 13 -23 18 -123 137 -119 141 2 1
19 8 37 16 81 32 114 117 72 185 -37 60 -73 69 -277 73 l-183 4 0 -35z m335
-67 c22 -18 19 -73 -6 -96 -15 -13 -40 -20 -90 -22 l-69 -4 0 64 c0 36 3 68 8
72 11 12 140 0 157 -14z"/>
<path d="M3110 956 c0 -30 3 -35 28 -38 l27 -3 0 -175 0 -175 -27 -3 c-24 -3
-28 -8 -28 -33 l0 -29 213 0 213 0 29 86 c23 71 25 88 14 95 -23 15 -47 10
-54 -10 -3 -11 -23 -35 -45 -54 -30 -28 -50 -37 -93 -42 -90 -11 -92 -10 -95
73 l-3 72 29 0 c34 0 52 -16 52 -47 0 -19 5 -23 30 -23 l31 0 -3 103 c-3 101
-3 102 -28 102 -19 0 -26 -6 -28 -25 -5 -36 -20 -50 -53 -50 -29 0 -29 0 -29
65 l0 65 63 0 c71 0 118 -22 145 -70 13 -22 22 -28 37 -24 36 11 37 21 9 98
l-29 76 -202 0 -203 0 0 -34z"/>
<path d="M635 380 c-3 -5 -3 -14 0 -20 4 -7 595 -10 1741 -10 1647 0 1735 1
1732 18 -3 16 -95 17 -1735 20 -1150 1 -1734 -1 -1738 -8z"/>
<path d="M1735 250 c-3 -5 -1 -10 4 -10 6 0 11 5 11 10 0 6 -2 10 -4 10 -3 0
-8 -4 -11 -10z"/>
<path d="M670 215 c0 -19 4 -35 8 -35 4 0 8 16 9 35 1 19 -3 35 -8 35 -5 0 -9
-16 -9 -35z"/>
<path d="M718 215 c-3 -23 0 -35 8 -35 7 0 10 8 7 20 -3 11 -1 20 5 20 6 0 14
-9 17 -20 10 -32 25 -23 25 15 0 19 -5 35 -11 35 -5 0 -7 -4 -4 -10 3 -5 2
-10 -4 -10 -5 0 -13 5 -16 10 -12 20 -23 10 -27 -25z"/>
<path d="M808 215 c-4 -32 -2 -35 23 -35 30 0 52 21 47 46 -5 29 -24 26 -23
-3 0 -19 -6 -29 -19 -31 -16 -3 -18 1 -14 27 2 17 1 31 -3 31 -4 0 -9 -16 -11
-35z"/>
<path d="M908 219 c5 -33 27 -48 44 -31 8 8 5 9 -11 5 -18 -5 -21 -1 -21 26 0
17 -4 31 -8 31 -5 0 -7 -14 -4 -31z"/>
<path d="M990 235 c0 -8 4 -15 8 -15 5 0 17 -7 28 -16 18 -15 18 -15 -8 -11
-16 2 -28 0 -28 -5 0 -14 53 -5 58 9 2 7 -8 18 -22 24 -14 7 -23 16 -20 20 3
5 0 9 -5 9 -6 0 -11 -7 -11 -15z"/>
<path d="M1090 215 c0 -22 5 -35 13 -35 9 0 12 11 9 35 -2 19 -8 35 -13 35 -5
0 -9 -16 -9 -35z"/>
<path d="M1164 215 c0 -19 3 -35 8 -35 4 0 8 7 8 17 0 15 1 15 18 0 23 -21 39
-22 22 -2 -10 12 -10 19 -2 27 15 15 15 28 2 28 -5 0 -10 -7 -10 -15 0 -8 -7
-15 -15 -15 -8 0 -15 7 -15 15 0 32 -15 13 -16 -20z"/>
<path d="M1258 215 c-2 -21 0 -35 7 -35 7 0 9 14 7 35 -2 19 -5 35 -7 35 -2 0
-5 -16 -7 -35z"/>
<path d="M1320 242 c0 -6 -3 -17 -6 -26 -4 -12 0 -16 16 -16 11 0 18 -4 15
-10 -3 -5 1 -10 9 -10 14 0 14 4 3 32 -12 30 -37 50 -37 30z"/>
<path d="M1434 214 c-1 -33 1 -35 30 -32 27 3 31 7 34 36 2 17 -1 32 -5 32 -5
0 -9 -12 -8 -27 0 -18 -6 -29 -17 -31 -14 -3 -18 3 -18 27 0 43 -15 39 -16 -5z"/>
<path d="M1528 215 c-4 -34 -3 -35 29 -35 18 0 33 4 33 9 0 5 -9 7 -20 4 -14
-4 -20 0 -20 11 0 10 5 14 10 11 15 -9 12 4 -4 21 -21 20 -23 18 -28 -21z"/>
<path d="M1660 234 c0 -9 9 -18 20 -21 11 -3 20 -10 20 -15 0 -6 -9 -8 -20 -5
-11 3 -20 1 -20 -4 0 -13 48 -11 56 3 4 6 -1 17 -12 24 -10 7 -25 18 -31 24
-10 8 -13 7 -13 -6z"/>
<path d="M1758 215 c-2 -20 0 -35 7 -35 5 0 10 16 10 35 0 19 -3 35 -6 35 -4
0 -9 -16 -11 -35z"/>
<path d="M1828 238 c7 -7 12 -22 12 -35 0 -14 6 -23 16 -23 8 0 12 5 9 10 -4
6 1 22 9 35 9 14 12 25 7 25 -5 0 -12 -6 -15 -12 -5 -10 -7 -10 -12 0 -3 6
-13 12 -22 12 -12 0 -13 -3 -4 -12z"/>
<path d="M1915 215 c0 -21 5 -35 12 -35 7 0 10 7 7 15 -4 8 -1 15 5 15 7 0 14
-7 17 -15 4 -8 10 -15 15 -15 6 0 5 9 -1 20 -7 14 -7 20 0 20 5 0 10 7 10 15
0 8 -4 15 -10 15 -5 0 -10 -7 -10 -15 0 -8 -7 -15 -16 -15 -10 0 -14 6 -10 15
3 8 0 15 -7 15 -7 0 -12 -14 -12 -35z"/>
<path d="M2005 230 c-9 -28 13 -52 44 -48 21 2 26 8 26 32 0 17 -6 31 -15 34
-13 5 -13 3 -1 -11 17 -21 7 -47 -18 -47 -23 0 -32 18 -19 43 5 10 5 17 -1 17
-5 0 -13 -9 -16 -20z"/>
<path d="M2108 215 c-3 -24 0 -35 9 -35 8 0 13 13 13 35 0 19 -4 35 -9 35 -5
0 -11 -16 -13 -35z"/>
<path d="M2147 230 c-3 -11 -2 -20 3 -20 12 0 21 28 11 35 -5 2 -11 -4 -14
-15z"/>
<path d="M2183 234 c-14 -38 41 -71 66 -40 14 17 11 48 -5 53 -7 2 -9 -8 -6
-27 4 -25 1 -30 -16 -30 -24 0 -33 18 -20 43 6 11 5 17 -2 17 -6 0 -13 -7 -17
-16z"/>
<path d="M2288 215 c-3 -24 0 -35 9 -35 7 0 10 7 7 15 -4 8 -2 15 4 15 5 0 15
-7 22 -15 7 -8 17 -15 22 -15 7 0 6 5 0 13 -6 7 -9 23 -5 35 3 13 1 22 -6 22
-6 0 -10 -6 -8 -12 1 -7 -5 -13 -13 -13 -8 0 -14 6 -12 13 1 6 -2 12 -7 12 -5
0 -11 -16 -13 -35z"/>
<path d="M2420 215 c0 -32 2 -35 29 -35 17 0 32 4 35 9 3 4 -6 6 -19 3 -26 -4
-35 12 -12 22 9 5 9 7 -1 12 -6 3 -10 10 -6 15 3 5 -2 9 -10 9 -12 0 -16 -10
-16 -35z"/>
<path d="M2522 230 c11 -16 9 -22 -7 -34 -17 -13 -18 -15 -3 -16 9 0 19 6 22
13 5 10 7 10 12 0 3 -7 22 -13 42 -13 36 0 37 1 37 35 0 19 -5 35 -11 35 -6 0
-9 -13 -6 -31 4 -28 2 -30 -19 -27 -19 2 -24 9 -24 30 1 21 -2 24 -12 16 -9
-7 -13 -7 -13 1 0 6 -7 11 -15 11 -13 0 -13 -3 -3 -20z"/>
<path d="M2644 230 c0 -11 4 -20 8 -20 4 0 8 9 8 20 0 11 -4 20 -8 20 -4 0 -8
-9 -8 -20z"/>
<path d="M2700 241 c0 -5 6 -12 13 -14 8 -4 7 -6 -3 -6 -8 -1 -21 -10 -28 -21
-10 -17 -10 -20 4 -20 8 0 12 5 9 10 -3 6 3 10 15 10 12 0 18 -4 15 -10 -3 -5
1 -10 9 -10 20 0 20 4 1 40 -15 29 -35 40 -35 21z"/>
<path d="M2778 215 c-2 -19 0 -35 4 -35 4 0 8 12 8 28 l1 27 16 -30 c13 -23
18 -26 21 -13 3 16 -25 58 -39 58 -4 0 -9 -16 -11 -35z"/>
<path d="M2865 215 c0 -34 2 -36 30 -33 26 3 30 8 33 36 2 17 -1 32 -5 32 -5
0 -9 -12 -8 -27 0 -18 -6 -29 -17 -31 -14 -3 -18 3 -18 27 0 17 -3 31 -7 31
-5 0 -8 -16 -8 -35z"/>
<path d="M2958 215 c-2 -20 0 -35 7 -35 5 0 10 16 10 35 0 19 -3 35 -6 35 -4
0 -9 -16 -11 -35z"/>
<path d="M3010 215 c0 -30 3 -35 24 -35 42 0 64 56 26 68 -12 4 -13 3 -2 -10
15 -18 6 -48 -14 -48 -9 0 -14 11 -14 30 0 17 -4 30 -10 30 -5 0 -10 -16 -10
-35z"/>
<path d="M3103 234 c-14 -38 41 -71 66 -40 14 17 11 48 -5 53 -7 2 -9 -8 -6
-28 4 -28 2 -30 -19 -27 -19 2 -24 9 -22 31 2 30 -4 35 -14 11z"/>
<path d="M3256 225 c8 -13 13 -29 9 -35 -3 -5 -1 -10 4 -10 6 0 11 9 11 19 0
11 5 23 10 26 6 3 10 11 10 18 0 6 -6 2 -14 -9 -14 -18 -15 -18 -21 -1 -4 9
-11 17 -16 17 -5 0 -2 -11 7 -25z"/>
<path d="M3367 231 c-6 -24 10 -51 30 -51 15 0 14 2 -2 14 -12 8 -16 20 -12
35 3 11 2 21 -3 21 -4 0 -10 -8 -13 -19z"/>
<path d="M3464 236 c-11 -29 1 -51 28 -54 34 -4 58 32 36 55 -13 12 -14 10
-10 -17 4 -27 2 -30 -23 -30 -25 0 -27 3 -23 30 5 32 1 39 -8 16z"/>
<path d="M3560 215 c0 -19 4 -35 9 -35 5 0 7 9 4 20 -3 11 -1 20 5 20 6 0 14
-9 17 -20 10 -33 25 -23 24 18 0 29 -2 33 -9 17 -7 -18 -8 -19 -15 -2 -13 31
-35 20 -35 -18z"/>
<path d="M3646 234 c-8 -21 11 -54 31 -54 15 0 14 2 -2 14 -12 8 -16 20 -12
35 6 24 -8 29 -17 5z"/>
<path d="M3744 215 c0 -22 4 -35 12 -35 8 0 11 6 8 15 -4 8 -1 15 5 15 7 0 14
-7 17 -15 4 -8 11 -15 16 -15 6 0 4 7 -3 17 -11 13 -11 17 -1 20 14 5 16 33 2
33 -5 0 -10 -7 -10 -15 0 -8 -7 -15 -15 -15 -8 0 -15 7 -15 15 0 32 -15 13
-16 -20z"/>
<path d="M3838 215 c-4 -34 -3 -35 29 -35 18 0 33 4 33 9 0 5 -8 7 -19 4 -10
-3 -22 0 -25 6 -4 6 0 11 8 11 9 0 16 5 16 10 0 6 -7 10 -16 10 -8 0 -12 5 -9
10 3 6 2 10 -3 10 -6 0 -12 -16 -14 -35z"/>
<path d="M3940 215 c0 -19 5 -35 10 -35 6 0 10 16 10 35 0 19 -4 35 -10 35 -5
0 -10 -16 -10 -35z"/>
<path d="M4005 229 c-10 -30 16 -53 49 -45 19 5 26 13 26 31 0 13 -4 26 -9 30
-6 3 -9 -7 -8 -22 2 -23 -3 -29 -22 -31 -21 -3 -23 -1 -19 27 5 35 -7 42 -17
10z"/>
</g>
</svg>
